<svg width="994" height="1045" xmlns="http://www.w3.org/2000/svg" xmlns:xlink="http://www.w3.org/1999/xlink" xml:space="preserve" overflow="hidden"><g transform="translate(-1659 -786)"><path d="M2015.01 786.062 2540 786.062C2601.9 786.062 2652.06 836.259 2652.06 898.203L2652.06 1437.59C2652.06 1467.35 2640.26 1495.85 2619.24 1516.88L2339.12 1797.21C2318.1 1818.24 2289.6 1830.06 2259.88 1830.06L1771.12 1830.06C1709.22 1830.06 1659.06 1779.87 1659.06 1717.92L1659.06 1269.16C1659.06 1247.25 1665.49 1225.8 1677.51 1207.52L1921.4 836.574C1942.12 805.046 1977.3 786.064 2015.01 786.062" fill="#4B8190" fill-rule="evenodd"/><path d="M2087.08 1296.04 2087.08 911.038 2289.01 911.038C2355.42 911.038 2404.22 921.906 2435.39 943.643 2466.52 965.328 2482.08 1002.93 2482.08 1056.44 2482.08 1099.16 2470.22 1131.11 2446.52 1152.29 2426.12 1170.47 2393.09 1181.79 2347.43 1186.25 2328.18 1188.11 2305.2 1189.04 2278.49 1189.04L2278.49 1296.04ZM2278.49 1130.53 2294.58 1130.53C2299.04 1130.53 2302.75 1129.05 2305.7 1126.09 2308.71 1123.13 2310.21 1119.24 2310.21 1114.42L2310.21 1088.74C2310.21 1083.92 2308.71 1080.13 2305.7 1077.37 2302.75 1074.56 2299.04 1073.16 2294.58 1073.16L2278.49 1073.16Z" fill="#ECEDDA" fill-rule="evenodd"/><path d="M2273.08 1143.03C2306.22 1143.03 2333.08 1109.24 2333.08 1067.54 2333.08 1025.84 2306.22 992.034 2273.08 992.034Z" fill="#4B8190" fill-rule="evenodd"/></g></svg>